<svg fill="#ffffff" width="64px" height="64px" viewBox="0 0 32 32" id="Layer_1" data-name="Layer 1"
    xmlns="http://www.w3.org/2000/svg" stroke="#ffffff" stroke-width="0.00032">
    <g id="SVGRepo_bgCarrier" stroke-width="0"></g>
    <g id="SVGRepo_tracerCarrier" stroke-linecap="round" stroke-linejoin="round"></g>
    <g id="SVGRepo_iconCarrier">
        <defs>
            <style> .cls-1 { fill: none; } </style>
        </defs>
        <path
            d="M29.3164,8.0513l-18-6A1,1,0,0,0,10.4,2.2L4,7V2H2V30H4V11l6.4,4.8a1,1,0,0,0,.9165.1489l18-6a1,1,0,0,0,0-1.8974ZM10,13,4.6665,9,10,5Zm4-.0542-2,.667V4.3872l2,.667Zm4-1.333-2,.6665V5.7207l2,.6665Zm2-.667V7.0542L25.8379,9Z"
            transform="translate(0 0)"></path>
        <path d="M20,22a4,4,0,0,0-8,0h2a2,2,0,1,1,2,2H8v2h8A4.0045,4.0045,0,0,0,20,22Z"
            transform="translate(0 0)"></path>
        <path d="M26,22a4.0045,4.0045,0,0,0-4,4h2a2,2,0,1,1,2,2H12v2H26a4,4,0,0,0,0-8Z"
            transform="translate(0 0)"></path>
        <rect id="_Transparent_Rectangle_" class="cls-1"
            width="32" height="32"></rect>
    </g>
</svg>