<svg width="40px" height="40px" viewBox="-6 -6 36.00 36.00" id="Layer_1" data-name="Layer 1"
    xmlns="http://www.w3.org/2000/svg" fill="#ffffff" transform="rotate(0)">
    <g id="SVGRepo_bgCarrier" stroke-width="0" transform="translate(0,0), scale(1)">
        <rect x="-6" y="-6" width="36.00" height="36.00" rx="18" fill="#ffd500" strokewidth="0"></rect>
    </g>
    <g id="SVGRepo_tracerCarrier" stroke-linecap="round" stroke-linejoin="round" stroke="#CCCCCC"
        stroke-width="0.8640000000000001"></g>
    <g id="SVGRepo_iconCarrier">
        <defs>
            <style>
                .cls-1{fill:none;stroke:#000000;stroke-miterlimit:10;stroke-width:1.91px;}.cls-2{fill:#000000;}</style>
        </defs>
        <path class="cls-1"
            d="M9.14,5.08c0,2.39-3.82,6-3.82,6S1.5,7.47,1.5,5.08A3.7,3.7,0,0,1,5.32,1.5,3.7,3.7,0,0,1,9.14,5.08Z"></path>
        <circle class="cls-2" cx="5.32" cy="5.32" r="0.95"></circle>
        <path class="cls-1"
            d="M22.5,14.62c0,2.39-3.82,6-3.82,6s-3.82-3.58-3.82-6a3.7,3.7,0,0,1,3.82-3.57A3.7,3.7,0,0,1,22.5,14.62Z"></path>
        <circle class="cls-2" cx="18.68" cy="14.86" r="0.95"></circle>
        <path class="cls-1"
            d="M4.36,13h4.3a2.39,2.39,0,0,1,2.39,2.39h0a2.39,2.39,0,0,1-2.39,2.39H3.89A2.39,2.39,0,0,0,1.5,20.11h0A2.39,2.39,0,0,0,3.89,22.5H19.64"></path>
    </g>
</svg>