<svg xmlns="http://www.w3.org/2000/svg" xmlns:xlink="http://www.w3.org/1999/xlink"
    viewBox="0 0 1080 1080" width="1080" height="1080" preserveAspectRatio="xMidYMid meet"
    style="width: 100%; height: 100%; transform: translate3d(0px, 0px, 0px); content-visibility: visible;">
    <defs>
        <clipPath id="__lottie_element_37">
            <rect width="1080" height="1080" x="0" y="0"></rect>
        </clipPath>
    </defs>
    <g clip-path="url(#__lottie_element_37)">
        <g transform="matrix(1,0,0,1,0,0)" opacity="1" style="display: block;">
            <path fill="rgb(255,255,255)" fill-opacity="1"
                d=" M1080,0 C1080,0 1080,1080 1080,1080 C1080,1080 0,1080 0,1080 C0,1080 0,0 0,0 C0,0 1080,0 1080,0z"></path>
        </g>
        <g
            transform="matrix(1,-0.000009549761671223678,0.000009549761671223678,1,539.9981689453125,422.0020751953125)"
            opacity="0.2" style="display: block;">
            <path fill="rgb(0,183,196)" fill-opacity="1"
                d=" M0,300 C0,134.32000732421875 134.32000732421875,0 300,0 C300,0 400,0 400,0 C400,0 400,100 400,100 C400,265.69000244140625 265.69000244140625,400 100,400 C100,400 0,400 0,400 C0,400 0,300 0,300 C0,300 0,300 0,300z"></path>
        </g>
        <g
            transform="matrix(1,0.000009549761671223678,0.000009549761671223678,-1,139.99806213378906,821.998291015625)"
            opacity="0.2" style="display: block;">
            <path fill="rgb(0,183,196)" fill-opacity="1"
                d=" M0,300 C0,134.32000732421875 134.32000732421875,0 300,0 C300,0 400,0 400,0 C400,0 400,100 400,100 C400,265.69000244140625 265.69000244140625,400 100,400 C100,400 0,400 0,400 C0,400 0,300 0,300 C0,300 0,300 0,300z"></path>
        </g>
        <g
            transform="matrix(0.2588251829147339,-0.9659242033958435,0.9659242033958435,0.2588251829147339,154.00010681152344,718.5)"
            opacity="0.2" style="display: block;">
            <path fill="rgb(0,183,196)" fill-opacity="1"
                d=" M0,300 C0,134.32000732421875 134.32000732421875,0 300,0 C300,0 400,0 400,0 C400,0 400,100 400,100 C400,265.69000244140625 265.69000244140625,400 100,400 C100,400 0,400 0,400 C0,400 0,300 0,300 C0,300 0,300 0,300z"></path>
        </g>
        <g
            transform="matrix(-0.2588251829147339,-0.9659242033958435,-0.9659242033958435,0.2588251829147339,926.7999267578125,718.5)"
            opacity="0.2" style="display: block;">
            <path fill="rgb(0,183,196)" fill-opacity="1"
                d=" M0,300 C0,134.32000732421875 134.32000732421875,0 300,0 C300,0 400,0 400,0 C400,0 400,100 400,100 C400,265.69000244140625 265.69000244140625,400 100,400 C100,400 0,400 0,400 C0,400 0,300 0,300 C0,300 0,300 0,300z"></path>
        </g>
        <g
            transform="matrix(0.5000003576278687,-0.8660252094268799,0.8660252094268799,0.5000003576278687,194.0048828125,621.9951782226562)"
            opacity="0.2" style="display: block;">
            <path fill="rgb(0,183,196)" fill-opacity="1"
                d=" M0,300 C0,134.32000732421875 134.32000732421875,0 300,0 C300,0 400,0 400,0 C400,0 400,100 400,100 C400,265.69000244140625 265.69000244140625,400 100,400 C100,400 0,400 0,400 C0,400 0,300 0,300 C0,300 0,300 0,300z"></path>
        </g>
        <g
            transform="matrix(-0.5000003576278687,-0.8660252094268799,-0.8660252094268799,0.5000003576278687,886.8250732421875,621.9951782226562)"
            opacity="0.2" style="display: block;">
            <path fill="rgb(0,183,196)" fill-opacity="1"
                d=" M0,300 C0,134.32000732421875 134.32000732421875,0 300,0 C300,0 400,0 400,0 C400,0 400,100 400,100 C400,265.69000244140625 265.69000244140625,400 100,400 C100,400 0,400 0,400 C0,400 0,300 0,300 C0,300 0,300 0,300z"></path>
        </g>
        <g
            transform="matrix(0.7071067690849304,-0.7071067690849304,0.7071067690849304,0.7071067690849304,257.497314453125,539.0001831054688)"
            opacity="0.2" style="display: block;">
            <path fill="rgb(0,183,196)" fill-opacity="1"
                d=" M0,300 C0,134.32000732421875 134.32000732421875,0 300,0 C300,0 400,0 400,0 C400,0 400,100 400,100 C400,265.69000244140625 265.69000244140625,400 100,400 C100,400 0,400 0,400 C0,400 0,300 0,300 C0,300 0,300 0,300z"></path>
        </g>
        <g transform="matrix(1,0,0,1,140,824)" opacity="1" style="display: block;">
            <path fill="rgb(255,255,255)" fill-opacity="0"
                d=" M800,0 C800,0 800,256 800,256 C800,256 0,256 0,256 C0,256 0,0 0,0 C0,0 800,0 800,0z"></path>
        </g>
        <g transform="matrix(1,0,0,1,140,824)" opacity="1" style="display: block;">
            <path fill="rgb(255,255,255)" fill-opacity="1"
                d=" M800,0 C800,0 800,256 800,256 C800,256 0,256 0,256 C0,256 0,0 0,0 C0,0 800,0 800,0z"></path>
        </g>
        <g transform="matrix(1,0,0,1,140,824)" opacity="0.2" style="display: block;">
            <path fill="rgb(0,182,195)" fill-opacity="1"
                d=" M800,0 C800,0 800,4 800,4 C800,4 0,4 0,4 C0,4 0,0 0,0 C0,0 800,0 800,0z"></path>
        </g>
    </g>
</svg>